<svg width="32" height="32" viewBox="0 0 32 32" fill="none" xmlns="http://www.w3.org/2000/svg">
<path d="M24.5001 11C23.9171 10.9994 23.3433 11.1451 22.8313 11.4237C22.6782 10.9497 22.4257 10.5138 22.0906 10.1452C21.7555 9.77658 21.3456 9.48374 20.8883 9.28625C20.4309 9.08877 19.9367 8.99118 19.4386 9.00002C18.9406 9.00885 18.4501 9.12391 18.0001 9.3375V5.5C18.0001 4.57174 17.6313 3.6815 16.9749 3.02513C16.3186 2.36875 15.4283 2 14.5001 2C13.5718 2 12.6816 2.36875 12.0252 3.02513C11.3688 3.6815 11.0001 4.57174 11.0001 5.5V15.5L10.5226 14.7338C10.2917 14.3361 9.98474 13.9878 9.61925 13.7088C9.25377 13.4297 8.83691 13.2254 8.39246 13.1075C7.49486 12.8693 6.53942 12.9975 5.73631 13.4637C4.9332 13.93 4.34822 14.6963 4.11005 15.5938C3.87187 16.4914 4.00003 17.4469 4.46631 18.25L5.05006 19.2787C9.35131 26.8612 11.1313 30 17.0001 30C19.9164 29.9967 22.7124 28.8367 24.7746 26.7745C26.8368 24.7123 27.9967 21.9164 28.0001 19V14.5C28.0001 13.5717 27.6313 12.6815 26.9749 12.0251C26.3186 11.3687 25.4283 11 24.5001 11ZM26.0001 19C25.9974 21.3861 25.0484 23.6738 23.3611 25.361C21.6738 27.0483 19.3862 27.9974 17.0001 28C12.2963 28 11.0201 25.75 6.79006 18.29L6.20381 17.2563V17.25C6.00476 16.9058 5.95048 16.4967 6.05291 16.1126C6.15533 15.7284 6.40609 15.4006 6.75006 15.2013C6.97791 15.0693 7.23675 15.0002 7.50006 15.0013C7.76374 15.0009 8.02286 15.07 8.25131 15.2017C8.47976 15.3333 8.66947 15.5229 8.80131 15.7513C8.8064 15.7613 8.81225 15.7709 8.81881 15.78L11.1526 19.53C11.2677 19.7139 11.4396 19.8553 11.6422 19.933C11.8449 20.0106 12.0672 20.0203 12.2758 19.9604C12.4844 19.9006 12.6678 19.7745 12.7985 19.6013C12.9291 19.428 12.9999 19.217 13.0001 19V5.5C13.0001 5.10218 13.1581 4.72064 13.4394 4.43934C13.7207 4.15804 14.1022 4 14.5001 4C14.8979 4 15.2794 4.15804 15.5607 4.43934C15.842 4.72064 16.0001 5.10218 16.0001 5.5V14C16.0001 14.2652 16.1054 14.5196 16.293 14.7071C16.4805 14.8946 16.7348 15 17.0001 15C17.2653 15 17.5196 14.8946 17.7072 14.7071C17.8947 14.5196 18.0001 14.2652 18.0001 14V12.5C18.0001 12.1022 18.1581 11.7206 18.4394 11.4393C18.7207 11.158 19.1022 11 19.5001 11C19.8979 11 20.2794 11.158 20.5607 11.4393C20.842 11.7206 21.0001 12.1022 21.0001 12.5V15C21.0001 15.2652 21.1054 15.5196 21.293 15.7071C21.4805 15.8946 21.7348 16 22.0001 16C22.2653 16 22.5196 15.8946 22.7072 15.7071C22.8947 15.5196 23.0001 15.2652 23.0001 15V14.5C23.0001 14.1022 23.1581 13.7206 23.4394 13.4393C23.7207 13.158 24.1022 13 24.5001 13C24.8979 13 25.2794 13.158 25.5607 13.4393C25.842 13.7206 26.0001 14.1022 26.0001 14.5V19Z" fill="#343330"/>
</svg>
