<svg width="30" height="30" viewBox="0 0 30 30" fill="none" xmlns="http://www.w3.org/2000/svg">
<path fill-rule="evenodd" clip-rule="evenodd" d="M5.02104 22.3012C5.41553 22.6968 5.61306 23.2477 5.55981 23.8038C5.44049 25.0502 5.16566 26.3472 4.81269 27.5522C7.42811 26.9477 9.02545 26.2465 9.75153 25.8785C10.1637 25.6697 10.6384 25.6203 11.0847 25.74C12.3181 26.0707 13.6327 26.25 15 26.25C22.4917 26.25 28.125 20.9859 28.125 15C28.125 9.01415 22.4917 3.75 15 3.75C7.50825 3.75 1.875 9.01415 1.875 15C1.875 17.7527 3.03245 20.307 5.02104 22.3012ZM4.09668 29.623C4.08405 29.6255 4.0714 29.628 4.05874 29.6305C3.88656 29.6644 3.71104 29.6978 3.53216 29.7306C3.28124 29.7766 3.02371 29.8213 2.75948 29.8645C2.38632 29.9256 2.10069 29.5352 2.24809 29.187C2.34439 28.9595 2.43932 28.7211 2.53181 28.4739C2.59057 28.3168 2.64834 28.1562 2.70485 27.9926C2.70729 27.9856 2.70972 27.9785 2.71215 27.9715C3.17667 26.622 3.55493 25.0708 3.69335 23.6251C1.39324 21.3185 0 18.3016 0 15C0 7.75126 6.71573 1.875 15 1.875C23.2843 1.875 30 7.75126 30 15C30 22.2487 23.2843 28.125 15 28.125C13.4686 28.125 11.9908 27.9242 10.5991 27.551C9.62506 28.0446 7.52688 28.9431 4.09668 29.623Z" fill="#252B42"/>
</svg>
